<svg width="246" height="86" viewBox="0 0 246 86" fill="none" xmlns="http://www.w3.org/2000/svg">
<path d="M24.8996 28.2C27.4996 23.7 31.1996 20 35.6996 17.4C40.2996 14.6 45.2996 13.3 50.7996 13.3C59.8996 13.3 66.8996 16.8 71.5996 23.8L64.5996 29C61.2996 24 56.4996 21.5 50.2996 21.5C44.6996 21.5 39.9996 23.5 35.9996 27.7C31.9996 31.8 29.9996 36.5 29.9996 41.8C29.9996 46.5 31.4996 50.2001 34.6996 53.2001C37.7996 56.2001 41.8996 57.6 46.8996 57.6C52.0996 57.6 56.6996 55.6 60.6996 51.6L66.3996 57.5C60.8996 63 54.1996 65.8001 46.3996 65.8001C39.0996 65.8001 32.8996 63.6 28.1996 59.3C23.4996 54.9 21.0996 49.3 21.0996 42.5C21.0996 37.4 22.3996 32.6 24.8996 28.2Z" fill="white"/>
<path d="M69 64.8001L76.5 28.1001H85.3L84.1 33.3001C86.8 29.4001 90.5 27.4001 95.3 27.4001C96.1 27.4001 97.3 27.5001 98.7 27.7001L97 35.9001C95.9 35.7001 94.7 35.5001 93.1 35.5001C87.1 35.5001 82.7 39.9001 81.3 46.6001L77.7 64.8001H69Z" fill="white"/>
<path d="M99 54.8001L104.5 28.1001H113.3L108 54.0001C107.8 55.3001 107.2 57.9001 109.9 57.9001C110.6 57.9001 111.1 57.8001 111.4 57.8001L109.9 64.9001C109 65.3001 107.6 65.4001 106 65.4001C101.4 65.4001 98.5 62.5001 98.5 58.4001C98.5 57.7001 98.6 56.5001 99 54.8001ZM105.4 19.2001C105.4 16.2001 108 13.4001 111.1 13.4001C113.9 13.4001 116 15.4001 116 18.1001C116 21.1001 113.5 23.8001 110.2 23.8001C107.3 23.8001 105.4 21.9001 105.4 19.2001Z" fill="white"/>
<path d="M113.699 64.8001L114.799 59.4001L140.299 35.9001H121.799L123.399 28.1001H154.299L152.999 34.1001L128.399 57.0001H149.199L147.599 64.8001H113.699Z" fill="white"/>
<path d="M159.799 33.7001C163.999 29.4001 168.999 27.3 174.699 27.3C181.399 27.3 186.199 30.0001 187.599 32.9001L188.599 28.1H197.299L191.999 54.1C191.799 55 191.099 58 193.999 58C194.499 58 195.099 57.9001 195.699 57.9001L194.199 65C193.299 65.4 192.099 65.5 190.599 65.5C186.399 65.5 184.399 63 183.799 60.5C180.999 63.9 176.699 65.6 170.799 65.6C165.799 65.6 161.599 64.1001 158.299 60.9001C154.999 57.8001 153.399 53.7001 153.399 48.7001C153.499 42.9001 155.599 37.9001 159.799 33.7001ZM172.599 57.6C176.199 57.6 179.199 56.4001 181.799 53.9001C184.299 51.4001 185.699 48.2001 185.699 44.4001C185.699 38.9001 181.399 35.2001 174.999 35.2001C171.499 35.2001 168.499 36.5 165.999 39.1C163.499 41.6 162.299 44.6 162.299 48C162.299 53.6 166.399 57.6 172.599 57.6Z" fill="white"/>
<path d="M201.3 52.5L209.1 14H217.9L210.1 52.2C209.5 54.6 209.5 57.7 214 57.7C214.6 57.7 215.2 57.6 216 57.5L214.5 65.1C213.7 65.4 212.5 65.5 210.8 65.5C204.7 65.5 200.8 61.9 200.8 56.4C200.8 55.7 201 54.4 201.3 52.5Z" fill="white"/>
<path d="M227.799 65.8C226.099 65.8 224.699 65.2 223.599 64.1C222.499 63 221.899 61.6 221.899 59.9C221.899 58.2 222.499 56.8 223.599 55.7C224.699 54.6 226.199 54 227.799 54C229.499 54 230.899 54.5 231.999 55.7C233.199 56.8 233.799 58.2 233.799 59.9C233.799 61.6 233.199 63 231.999 64.1C230.899 65.2 229.499 65.8 227.799 65.8ZM227.799 55.1C224.999 55.1 223.099 57.1 223.099 59.9C223.099 62.7 225.099 64.7 227.799 64.7C230.599 64.7 232.599 62.7 232.599 59.9C232.599 57.1 230.599 55.1 227.799 55.1ZM225.599 63.2V56.5H227.999C229.299 56.5 230.199 57.4 230.199 58.6C230.199 59.5 229.799 60.1 229.099 60.6L230.699 63.3H229.199L227.699 60.8H226.799V63.3H225.599V63.2ZM226.899 59.7H227.999C228.599 59.7 228.999 59.2 228.999 58.6C228.999 58 228.599 57.6 227.999 57.6H226.899V59.7Z" fill="white"/>
</svg>
