<svg width="274" height="86" viewBox="0 0 274 86" fill="none" xmlns="http://www.w3.org/2000/svg">
<path d="M21.0996 64.8V14H49.7996V19.2H26.7996V35.3H48.3996V40.5H26.6996V59.4H50.1996V64.6H21.0996V64.8Z" fill="white"/>
<path d="M56.6996 74.4001C57.6996 74.8001 58.9996 75.0001 60.2996 75.0001C62.8996 75.0001 64.5996 74.2001 66.2996 69.8001L67.8996 65.6001L53.0996 28.1001H58.4996L70.5996 59.0001L82.1996 28.1001H87.5996L70.9996 71.0001C68.9996 76.4001 66.1996 80.0001 60.2996 80.0001C58.8996 80.0001 57.6996 79.8001 56.6996 79.3001V74.4001V74.4001Z" fill="white"/>
<path d="M123.499 45.3C123.499 40.1 121.899 35.8 118.799 32.3C115.699 28.7 111.699 27 106.599 27C101.299 27 96.7992 28.8 93.3992 32.4C89.9992 36 88.1992 40.8 88.1992 46.7C88.1992 52.4 89.8992 57.1 93.2992 60.5C96.6992 63.9 101.199 65.7 106.699 65.7C112.699 65.7 117.699 63.5 121.499 59.2L117.899 55.7C114.599 59.2 111.599 60.8 106.599 60.8C98.9992 60.8 93.7992 55.6 93.4992 47.6H123.299C123.499 46.9 123.499 46.1 123.499 45.3ZM93.9992 42.9C94.1992 39.9 95.4992 37.4 97.8992 35.3C100.299 33.2 103.199 32.1 106.599 32.1C109.699 32.1 112.299 33.2 114.499 35.3C116.699 37.4 117.799 40 117.799 42.9H93.9992Z" fill="white"/>
<path d="M127.1 64.8001V59.4001L148 35.9001H129.3V28.1001H160.2V34.1001L140.1 57.0001H161.1V64.8001H127.1Z" fill="white"/>
<path d="M206.3 64.8001V28.1H215V33.3C216.7 29.7 220.8 27.3 226 27.3C234.7 27.3 239.7 32.9 239.7 42V53.6C239.7 56.4 240.2 57.5 242.2 57.5C242.6 57.5 243.1 57.4001 243.4 57.4001V64.7C242.4 65 241.1 65.1 239.6 65.1C233.9 65.1 231 61.9 231 55.5V43.3C231 38.3 228.2 35.2001 223.3 35.2001C218.4 35.2001 215 38.7001 215 43.7001V64.8001H206.3Z" fill="white"/>
<path d="M201.1 45.6001C201.1 40.4001 199.4 36.0001 196 32.4001C192.7 28.8001 188.3 27.1001 183 27.1001C177.4 27.1001 172.8 28.8001 169.2 32.4001C165.6 36.0001 163.8 40.8001 163.8 46.6001C163.8 52.4001 165.6 57.1001 169.2 60.5001C172.8 63.9001 177.5 65.7001 183.2 65.7001C189.4 65.7001 194.5 63.5001 198.6 59.2001L193.4 54.1001C190.6 56.9001 187.3 58.3001 183.5 58.3001C177 58.3001 172.7 54.5001 172.4 48.7001H200.9C201 47.7001 201.1 46.7001 201.1 45.6001ZM172.6 42.5001C172.8 40.2001 173.9 38.4001 175.9 36.8001C177.9 35.3001 180.3 34.5001 183 34.5001C185.5 34.5001 187.7 35.3001 189.5 36.9001C191.3 38.4001 192.3 40.3001 192.3 42.5001H172.6Z" fill="white"/>
<path d="M250.1 64.8V57.7H247.3V56H254.7V57.7H251.9V64.8H250.1ZM255.8 64.8V56H256L260.6 60.7L265.2 56H265.4V64.8H263.6V60L260.6 63.3L257.6 60V64.8H255.8Z" fill="white"/>
</svg>
