<svg xmlns="http://www.w3.org/2000/svg" width="200" height="77.1" style="enable-background:new 0 0 200 77.1" xml:space="preserve">
  <path d="M199.1 0H.8C.4 0 0 .4 0 .8V60c0 .8.3 1.5.8 2.1C8.7 71.2 20.3 77 33.3 77c13.5 0 25.5-6.2 33.3-15.9C74.5 70.8 86.5 77 99.9 77s25.5-6.2 33.3-15.9a42.88 42.88 0 0 0 65.8 1c.5-.6.8-1.3.8-2.1V.9c.2-.5-.2-.9-.7-.9" style="fill:#e94816"/>
  <path d="m68 41.4-3.2-10.3c-1-3.3-3-5.1-5.4-5.1-2 0-3 1.1-3.7 1.8-.2.2-.4.1-.4 0V17.5c0-.4-.3-.8-.8-.8h-4.6c-.5 0-.8.3-.8.7 0 .8.7.6.7 2.6v21.4c0 2.1-.7 1.9-.7 2.6 0 .4.3.7.8.7h5.4c.4 0 .7-.3.7-.7 0-.8-.7-.6-.7-2.6v-9.2c0-1.4.8-2.4 1.9-2.4 1.2 0 1.9.8 2.4 2.4l2.8 9.2c.6 2.1-.4 2.1-.2 2.8.1.4.4.5.9.5h5.7c.4 0 .7-.4.6-.8-.2-.7-.8-.4-1.4-2.5m16.8-3.2c-1 0-1.7.6-2 1.8-.3 1.2-1.2 2.2-3 2.2-1.9 0-3.4-1.4-4.5-3.7-.1-.2 0-.3.2-.4L86 33.2c.3-.1.4-.4.3-.8-.3-1.8-3.1-6.2-8.5-6.2-4.6 0-8.9 3.4-8.9 9.3 0 5.2 3.8 9.6 9.8 9.6 4.8 0 7.9-3 7.9-5.2-.1-.9-.7-1.7-1.8-1.7M74 35.5c-.4-1-.5-1.8-.5-2.7 0-2.3 1.3-3.7 3-3.7 1.6 0 3.2 1.2 4 3.4 0 .1 0 .2-.1.3l-6.2 2.9c-.1 0-.1 0-.2-.2m27.4-6.5c0-1.5-1.1-2.9-3-2.9-1.8 0-3.3 1.5-4.2 3.3-.1.2-.3.2-.3-.1v-1.6c0-.7-.6-1.3-1.3-1.3h-4.1c-.5 0-.8.3-.8.7 0 .8.7.6.7 2.6v11.7c0 2.1-.7 1.9-.7 2.6 0 .4.3.7.8.7h5.4c.4 0 .7-.3.7-.7 0-.8-.7-.6-.7-2.6v-7.7c0-2 1-2.8 1.8-2.8.7 0 1.5 1 2.8 1 1.8 0 2.9-1.4 2.9-2.9m46-4.4c1.8 0 3.2-1.4 3.2-3.2 0-1.8-1.4-3.2-3.2-3.2-1.8 0-3.2 1.4-3.2 3.2 0 1.7 1.4 3.2 3.2 3.2M24.1 18.1c1.2 0 2 .3 2.7.9.1.1.1.2 0 .3-.6.6-.9 1.4-.9 2.2 0 1.8 1.4 3 3.2 3 1.8 0 3.2-1.5 3.2-3.2 0-3.2-3.6-6.1-8.5-6.1-5.1 0-9.1 3.4-9.1 10.2v.8c0 .1-.1.2-.2.2h-2.4c-.4 0-.8.4-.8.8v1.5c0 .4.4.8.8.8h2.4c.1 0 .2.1.2.2v11.8c0 2.1-.7 1.9-.7 2.6 0 .4.3.7.8.7h5.4c.4 0 .7-.3.7-.7 0-.8-.7-.6-.7-2.6V29.6c0-.1.1-.2.2-.2h3c.4 0 .8-.3.8-.8v-1.5c0-.4-.4-.8-.8-.8h-3c-.1 0-.2-.1-.2-.2v-2.6c-.1-3.3 1.5-5.4 3.9-5.4m7.7 9c0-.4-.3-.7-.7-.7h-4.7c-.5 0-.8.3-.8.7 0 .8.7.6.7 2.6v11.7c0 2.1-.7 1.9-.7 2.6 0 .4.3.7.8.7h5.4c.4 0 .7-.3.7-.7 0-.8-.7-.6-.7-2.6V27.1zM42 33.7c-1.9-1-3.5-1.8-3.5-3.1 0-1.2.9-2 2.2-2 1.4 0 2.2.6 2.5 1.9.3 1 1 1.8 2.2 1.8 1.4 0 2-1 2-2 0-2.3-3.1-4.2-6.5-4.2-4.5 0-6.9 2.8-6.9 5.8 0 2.8 2.5 4.5 4.9 5.8 2.1 1.2 4 2.1 4 3.4 0 1-1 1.8-2.3 1.8-1.4 0-2.2-.8-2.5-2.1-.3-1.1-1-1.8-2.2-1.8-1.4 0-2 1.2-2 2 0 2.6 3.2 4.4 6.6 4.4 4.8 0 7.3-2.4 7.3-5.7 0-3-3.1-4.6-5.8-6m63.2-.9-8.3 3.8c-.4.2-.6.7-.3 1.1 1.4 2.1 4.3 3 6.7 1.8 2.4-1.1 3.6-3.8 2.9-6.3 0-.4-.6-.6-1-.4m80.4 5.4c-1 0-1.7.6-2 1.8-.3 1.2-1.2 2.2-3 2.2-1.9 0-3.4-1.4-4.5-3.7-.1-.2 0-.3.2-.4l10.5-4.9c.3-.1.4-.4.3-.8-.3-1.8-3.1-6.2-8.5-6.2-4.6 0-8.9 3.4-8.9 9.3 0 5.2 3.8 9.6 9.8 9.6 4.8 0 7.9-3 7.9-5.2-.1-.9-.7-1.7-1.8-1.7m-10.8-2.7c-.4-1-.5-1.8-.5-2.7 0-2.3 1.3-3.7 3-3.7 1.6 0 3.2 1.2 4 3.4 0 .1 0 .2-.1.3l-6.2 2.9c-.1 0-.1 0-.2-.2m-8 3.3c-1 0-1.7.7-1.9 1.6-.4 1.5-1.6 2.2-3 2.2-2.3 0-3.8-2.3-3.8-6.9 0-4.6 1.4-6.8 3.7-6.8 1.5 0 2.2.7 2.7 2.2.3 1 1 1.6 2.1 1.6 1.3 0 2-.9 2-2 0-2.5-3.4-4.6-6.8-4.6-5.6 0-9.5 3.8-9.5 9.6s3.9 9.6 9.5 9.6c3.4 0 6.9-2.1 6.9-4.5 0-1.1-.7-2-1.9-2m-27-12.7c-1.8 0-3.3 1.5-4.2 3.3-.1.2-.3.2-.3-.1v-1.6c0-.7-.6-1.3-1.3-1.3h-4.1c-.5 0-.8.3-.8.7 0 .8.7.6.7 2.6v11.7c0 2.1-.7 1.9-.7 2.6 0 .4.3.7.8.7h5.4c.4 0 .7-.3.7-.7 0-.8-.7-.6-.7-2.6v-7.7c0-2 1-2.8 1.8-2.8.7 0 1.5 1 2.8 1 1.8 0 2.8-1.4 2.8-2.9.1-1.5-1-2.9-2.9-2.9m-20.2 0c-2 0-3.7.8-4.9 2.1-.1.1-.2.1-.2-.1v-.4c0-.7-.6-1.3-1.3-1.3h-4.1c-.5 0-.8.3-.8.7 0 .8.7.6.7 2.6v20.1c0 2.1-.7 1.9-.7 2.6 0 .4.3.7.8.7h5.4c.4 0 .7-.3.7-.7 0-.8-.7-.6-.7-2.6v-6.1c0-.1.1-.1.2 0 1.1 1.1 2.6 1.6 4.3 1.6 5.2 0 8.7-3.9 8.7-9.6 0-5.7-3.2-9.6-8.1-9.6m-1.4 16.4c-1.9 0-3.6-1.6-3.6-5.2V34c0-3.6 1.7-5.2 3.6-5.2 2.3 0 3.8 2.2 3.8 6.9-.1 4.7-1.9 6.8-3.8 6.8m32-15.4c0-.4-.3-.7-.7-.7h-4.7c-.5 0-.8.3-.8.7 0 .8.7.6.7 2.6v11.7c0 2.1-.7 1.9-.7 2.6 0 .4.3.7.8.7h5.4c.4 0 .7-.3.7-.7 0-.8-.7-.6-.7-2.6V27.1z" style="fill:#fff"/>
</svg>