<svg xmlns="http://www.w3.org/2000/svg" width="150" height="26.6" style="enable-background:new 0 0 150 26.6" xml:space="preserve">
  <path d="M15.8 13.4h.4c1.6.1 2.2.4 2.4.5.1.1.4.6.4 2.3v5.9c0 .2 0 .4-.2.6-.1.1-.4.3-1.5.6-.5.2-1.1.3-1.6.4-.5.1-1 .1-1.5.1-2.4 0-4.7-1-6.3-2.7-1.7-1.8-2.6-4.4-2.6-7.7 0-4 .8-6.9 2.6-8.6 1.7-1.7 3.7-2.6 6-2.6s4 .7 5.3 2.2c.8.8 1.5 2.1 2.3 3.9l.1.3h1.6L22.9 0h-1.6l-.1.3c-.1.3-.2.5-.4.7-.1.1-.3.2-.8.2 0 0-.4 0-2.3-.6-1.4-.4-2.9-.6-4.4-.6-4 0-7.4 1.4-9.8 4.2C1.2 6.8 0 10.1 0 13.4c0 4 1.4 7.3 4.3 9.7 2.5 2.2 5.7 3.3 9.4 3.3 2.1 0 4.3-.4 6.3-1.1 2.9-1 3.5-1.6 3.5-2.1v-7.3c0-1 .2-1.7.6-2 .1-.1.5-.3 1.6-.4h.4V12H15.8v1.4zM52.4 2h.4c1.2.1 2 .4 2.5.8.2.2.6 1 .6 3.5V16c0 2.3-.3 4-.8 5-1 1.9-2.8 2.8-5.7 2.8-2.6 0-4.3-.9-5.2-2.7-.5-1-.8-2.5-.8-4.3V4.9c0-1.6.3-2.1.5-2.3.2-.2.8-.5 2.5-.6h.4V.5H35.5V2h.4c1.7.1 2.3.4 2.5.6.2.2.5.7.5 2.3v11.5c0 2.4.4 4.3 1.2 5.7 1.5 2.7 4.4 4.1 8.6 4.1 4.2 0 7.1-1.4 8.6-4.2.8-1.5 1.2-3.6 1.2-6.2V6.4c0-2.4.4-3.2.6-3.4.2-.4.9-.8 2.5-1h.4V.5h-9.4L52.4 2zm39.5 17c-.9 2-1.9 3.3-3 3.7-1.1.5-2.9.8-5.3.8-2.8 0-3.7-.1-4.1-.2-.1 0-.4-.1-.4-.9v-8.7h5.3c1.9 0 2.5.4 2.7.5.3.3.6.9.9 2.6l.1.4h1.7V7.9h-1.7l-.1.3c-.3 1.6-.7 2.4-.9 2.6-.2.2-.8.6-2.7.6h-5.3V3.6c0-.6.1-.7.1-.7.3-.1 5.8-.1 5.8-.1 2.6 0 3.6.4 3.9.6.4.3.9 1 1.2 2.9l.1.4H92L91.8.5H71.2V2h.4c1.6.1 2.2.4 2.4.6s.4.7.4 2.3v16.4c0 1.7-.3 2.1-.4 2.3-.2.2-.8.4-2.4.6h-.4v1.5H92l1.9-7.1H92l-.1.4zm24.3-7.5-3.3-2c-1-.6-1.8-1.2-2.6-2-.5-.6-.8-1.4-.8-2.1 0-.8.3-1.6 1-2.1s1.5-.8 2.4-.8c1.2 0 2.5.4 3.7 1.3s2.1 2.5 2.7 4.7l.1.4h1.7l-.8-8.9h-1.5l-.1.3c-.1.3-.2.5-.3.8-.2.1-.4.2-.6.2 0 0-.4 0-1.9-.6-1-.4-2.1-.6-3.2-.7-2.1 0-3.9.7-5.3 2-1.3 1.3-2.1 3.1-2 5 0 1.5.6 2.9 1.7 4.2.7.7 1.5 1.4 2.4 1.9l3.2 2c1.8 1.1 2.9 2 3.5 2.5.8.7 1.2 1.8 1.2 2.9 0 1.2-.4 2.1-1.1 2.8-.8.7-1.7 1-2.8 1-2 0-3.7-.8-5.1-2.4-.8-.9-1.5-2.2-2.1-3.8l-.1-.3h-1.6l1.2 8.8h1.6v-.4c0-.3.1-.5.3-.7 0-.1.2-.2.5-.2 0 0 .4 0 2 .6 1.2.4 2.5.7 3.7.7 2.4 0 4.4-.7 5.9-2s2.4-3.2 2.4-5.2c0-1.5-.4-2.9-1.3-4.1-1.1-1.3-2.6-2.5-4.7-3.8zm32.5 3.6c-.8-1.1-2.4-2.3-4.4-3.6l-3.3-2c-1-.6-1.8-1.2-2.6-2-.5-.6-.8-1.4-.8-2.1 0-.8.3-1.6 1-2.1s1.5-.8 2.4-.8c1.2 0 2.5.4 3.7 1.3 1.2.9 2.1 2.5 2.7 4.7l.1.4h1.7l-.8-8.9h-1.5l-.1.3c-.1.3-.2.5-.3.8-.2.1-.4.2-.6.2 0 0-.4 0-1.9-.6-1-.4-2.1-.6-3.2-.7-2.1 0-3.9.7-5.3 2-1.3 1.3-2.1 3.1-2 5 0 1.5.6 2.9 1.7 4.2.7.7 1.5 1.4 2.4 1.9l3.2 2c1.8 1.1 2.9 2 3.5 2.5.8.7 1.2 1.8 1.2 2.9 0 1.2-.4 2.1-1.2 2.8-.8.7-1.7 1-2.8 1-2 0-3.7-.8-5.1-2.4-.8-.9-1.5-2.2-2.1-3.8l-.1-.3h-1.6l1.2 8.8h1.6v-.4c0-.2.1-.5.2-.7 0-.1.2-.2.5-.2 0 0 .4 0 2 .6 1.2.4 2.5.7 3.7.7 2.4 0 4.4-.7 5.9-2s2.4-3.2 2.4-5.2c-.1-1.8-.5-3.2-1.4-4.3z"/>
</svg>