<svg xmlns="http://www.w3.org/2000/svg" width="23" height="24" fill="none">
  <path stroke="#000" stroke-linecap="round" stroke-linejoin="round" stroke-width="1.0988" d="M10.2881 8.987h2.6667M18.104 10.4321l.4517-3.4686c.3218-2.471-1.6021-4.6617-4.0938-4.6617H8.8525c-2.4262 0-4.3294 2.082-4.112 4.4985l.327 3.6318"/>
  <path stroke="#000" stroke-linecap="round" stroke-linejoin="round" stroke-width="1.0988" d="M4.9207 8.7996h-.7225c-.8747 0-1.5221.8137-1.3254 1.6662l.3235 1.4014a1.3603 1.3603 0 0 0 1.3253 1.0544h.7702l.1248 1.3866c.2836 3.1514 2.9248 5.5656 6.0891 5.5656 3.0712 0 5.6658-2.2786 6.0624-5.3241l.212-1.6281h.9415a1.3602 1.3602 0 0 0 1.3253-1.0544l.3234-1.4014c.1968-.8523-.4507-1.6662-1.3253-1.6662h-.7281"/>
  <path stroke="#000" stroke-linecap="round" stroke-linejoin="round" stroke-width="1.0988" d="M7.0771 8.987h3.6001v1.0897c0 .9935-.8065 1.7999-1.8 1.7999-.9934 0-1.7998-.8064-1.7998-1.7999V8.9871H7.077ZM12.6382 8.987h3.6v1.0897c0 .9935-.8064 1.7999-1.7999 1.7999-.9934 0-1.7999-.8064-1.7999-1.7999V8.9871h-.0002Z"/>
  <path fill="#000" d="M21.365 23.002c-1.0285-1.2765-2.6045-2.0933-4.3713-2.0933H6.3215c-1.767 0-3.3428.8168-4.3713 2.0933h19.415-.0002Z"/>
  <path fill="#000" fill-rule="evenodd" d="M15.4324 2.2641H7.7041c-4.7027 0-3.9474 3.85-3.4912 5.8067.6993.1877 2.272.165 2.272-1.4274s.987-2.079 1.5675-2.1232h7.0316c.5806.0442 1.5676.5307 1.5676 2.1232 0 1.5925 1.5727 1.6151 2.2719 1.4274.4562-1.9568 1.2116-5.8067-3.4911-5.8067Z" clip-rule="evenodd"/>
  <path fill="#000" d="M10.6182.5568c-3.1165 0-4.0254 1.361-4.0904 2.0415 3.5061 1.1135 10.7129 2.821 11.4921.7423C18.799 1.262 18.1678 0 17.046 0c.2818.72-2.5322.5568-6.4278.5568Z"/>
</svg>