<svg xmlns="http://www.w3.org/2000/svg" width="155" height="62" viewBox="0 0 155 62" style="enable-background:new 0 0 155 62" xml:space="preserve">
  <style>
    .st0{display:none}.st1,.st2{display:inline;fill:#ccc}.st2{fill:#282828}.st3{fill:#a5a5a5}.st3,.st4{display:inline}.st4,.st6{fill:none;stroke:#ccc;stroke-miterlimit:10}
  </style>
  <g id="Слой_4">
    <path d="M136.5 24.1c-.6-4.7-5.7-5.8-8.2-6.3-6.9-1.4-21-3.2-37.7 1-7.8 2-11.9 3.8-13.6 8.3-6-2.8-12.6-2.4-17.4-.5-1.8-4.2-6-6-13.4-7.9-16.7-4.2-30.7-2.5-37.7-1C6 18.2.9 19.3.3 24-1.6 39.2 4 50.8 17 58.5l.1.1c4.8 2.3 10.5 3.1 15.5 3.1 3.5 0 6.6-.4 8.6-1 10.6-3.2 16.9-10.7 18-15.1 1.6-6.4 2-11.3 1.1-16 4.3-1.9 10.4-2.3 15.9.5-.7 4.5-.3 9.3 1.2 15.5 1.1 4.3 7.4 11.9 18 15.1 2 .6 5.1 1 8.6 1 4.9 0 10.7-.8 15.5-3.1l.1-.1c13.1-7.6 18.8-19.2 16.9-34.4zM56.4 44.9c-.9 3.5-6.6 10.1-16 12.9-4.6 1.4-14.7 1.5-21.9-1.9C6.7 49 1.6 38.4 3.3 24.5c.2-1.8 1.9-2.9 5.8-3.7 6.6-1.4 20.2-3.1 36.3 1 8.4 2.1 10.9 3.7 11.8 7.4 0 .1.1.3.1.4.9 4.4.6 9.1-.9 15.3zM118.3 56c-7.1 3.4-17.3 3.3-21.9 1.9-9.4-2.8-15.1-9.4-16-12.9-1.6-6.2-1.9-11-1-15.4.8-4 3.3-5.6 11.9-7.8 7.5-1.9 14.5-2.5 20.5-2.5 6.8 0 12.3.8 15.8 1.6 3.9.8 5.6 1.9 5.8 3.7 1.8 13.8-3.3 24.4-15.1 31.4z" style="fill:#a5a5a5"/>
    <path class="st6" d="M57 5v13.5M3 18.5V4.9"/>
    <path style="fill:#282828" d="M51.6 9.8V5.4H8.3v4.4L2.4 4.9 8.3 0v4.4h43.3V0l5.9 4.9z"/>
  </g>
</svg>
