<svg xmlns="http://www.w3.org/2000/svg" width="71.055" height="82.075" viewBox="0 0 82.72 95.55">
  <path d="M10.79 58.939c-3.735-1.402-5.718-2.895-7.497-4.943-1.098-1.353-2.37-4.08-2.827-6.06C.075 46.243.184 42.22.65 41.09c1.85-6.116 10.378-7.723 15.926-7.835 1.876-.002 3.717.064 4.092.147.375.083 1.664.286 2.865.448 4.424.5 8.055 2.016 10.49 4.023.668.551 1.533 1.558 1.924 2.237.778 1.353.74 1.344 3.249.727 1.786-.44 2.143-.418 5.255.33 1.103.266 1.271.176 1.59-.778 3.924-6.587 13.445-7.158 20.597-7.142 5.221.419 10.378.68 13.468 4.76 2.605 3.546 2.65 9.077.113 14.038-.448.748-.957 1.57-1.44 2.229 0 .175-.584.759-1.296 1.297-.619.463-1.227.939-1.825 1.424-5.976 3.726-14.323 3.942-20.478 1.969-3.666-1.417-7.059-4.196-8.795-7.387-1.36-2.58-1.484-3.032-1.534-5.628l-.05-2.578-1.359-.447c-1.419-.468-3.201-.449-5.052.054l-.965.262-.024 2.623c-.024 2.721-.118 3.056-1.676 5.99-3.375 4.5-8.043 6.381-12.48 8.042-4.427.226-8.543.492-12.455-.956zm13.153-1.089c4.217-1.406 8.084-3.443 10.258-7.334 1.421-2.693 1.653-5.634.514-6.514-.465-.358-.523-1.092-.14-1.758.206-.355.087-.692-.51-1.458-1.841-2.065-4.163-3.356-6.713-4.066-7.084-1.945-15.707-1.919-20.145-.003-2.026 1.156-3.6 2.571-4.406 4.407-.572 1.02-.548 6.171.036 7.572.232.558.485 1.32.562 1.696.077.375.372.878.657 1.117.284.24.517.576.517.748 1.632 2.536 4.045 3.475 6.506 4.645.397.26 1.092.538 1.542.618.45.08 1.494.319 2.32.532 2.006.519 6.942.409 9.002-.2zm43.387.214a70.155 70.155 0 0 1 2.446-.6c.838-.18 1.512-.478 4.527-2 2.94-1.658 4.27-4.134 5.156-6.894.27-1.186.438-1.777.351-4.31-.095-2.77-.192-3.308-.77-4.27-1.636-2.49-4.05-3.49-6.707-4.267-4.342-.81-9.045-.761-13.037-.103-3.136.524-3.857.697-5.752 1.384-1.145.416-2.962 1.531-4.243 2.606-1.334 1.121-2.015 2.382-1.808 3.348.086.396.051.823-.077.947-.94.918-.681 3.963.544 6.385 2.608 4.45 6.382 6.616 11.313 7.907 1.462.372 6.593.303 8.18-.117zM17.637 95.438c-.699-.161-.862-.565-.382-.951.238-.192 1.143-.269 2.605-.222 2.107.067 2.247.105 2.324.626.057.397-.049.556-.38.563-.254.006-1.169.034-2.032.062-.864.028-1.825-.008-2.135-.078zm42.662.05c-.665-.091-.785-.896-.17-1.125.22-.083 1.347-.15 2.503-.15 1.585 0 2.181.093 2.425.38.556.65-.103.933-2.217.954-1.084.012-2.228-.015-2.542-.058zm-43.3-69.86c-.353-.14-.306-1.125.026-1.174.818-.12 4.366-.17 4.737-.065.475.133.63.753.249.99-.308.19-4.617.404-5.012.249zm44.384-.031c-.861-.13-1.246-.502-.89-.86.436-.435 4.75-.524 5.313-.11.809.598.019 1.016-1.974 1.044-.983.014-2.085-.02-2.45-.074zm-49.46 68.937c-.856-.466-1.66-.802-2.495-1.155-.408-.291-.43-.403-.143-.739.45-.527 1.24-.498 2.222.083a6.192 6.192 0 0 0 1.712.642c1.059.193 1.321.482.893.982-.295.345-1.024.408-2.189.187zm43.878-.026c-1.559-.577-2.966-1.474-3.862-2.576.05-.148.291-.387.536-.532.353-.21.538-.151.9.277 1.092.752 2.12 1.134 3.25 1.663 1.212.358.463 1.421-.824 1.168zM68 94.341c-.238-.603-.012-.825 1.034-1.016a6.645 6.645 0 0 0 1.768-.651c1.012-.58 2.102-.423 2.102.302 0 .35-.236.52-.89.64-.907.358-1.721.776-2.556.977-1.082.14-1.319.099-1.458-.251zm-43.116-.138c-.198-.312.067-.694.767-.974.9-.501 1.808-.87 2.614-1.353 1.027-.6 1.134-.754 1.54-.279.546.639.214.98-1.92 1.984-2.544 1.09-2.547.992-3.001.621zM8.297 23.083c0-.126-.026-.681.175-.848 1.862.309 3.318.903 5.008 1.57.283.34.12 1.238-.213 1.176-1.88-.172-3.713-.898-4.97-1.898zm60.89 1.663c-.091-.147-.094-.49-.01-.761.12-.372.494-.526 1.518-.625 1.304-.31 2.412-.945 3.383-.867.63.759-.455 1.567-2.887 2.148-1.81.433-1.801.433-2.004.105zm-43.985-.173c-.182-.074-.331-.35-.331-.613 1.257-.878 2.05-1.364 3.27-1.92.992-.565 1.492-.55 1.492.428-1.417 1.103-2.88 2.12-4.431 2.105zm30.33-.316c-.903-.497-1.9-.754-2.714-1.236-.162-.422.05-1.186.325-1.18 1.29.312 2.507 1.038 3.673 1.442 1.034.387 1.35.648.72 1.108-.666.487-1.256.448-2.004-.134zM4.62 90.136c-1.443-1.562-1.775-2.133-1.56-2.677.239-.608 1.161-.465 1.43.223.13.332.704 1.059 1.276 1.614.702.683 1.014 1.183.96 1.546-.137.93-.799.709-2.106-.707zm70.717.98c-.258-.653-.192-.783.987-1.961.774-.999 1.297-1.754 2.301-2.08.639 0 .388 1.151-.464 2.13-2.168 2.492-2.505 2.72-2.824 1.911zM3.214 20.068c-1.274-1.323-1.388-1.534-1.13-2.1.157-.346.392-.628.52-.628.99.888 1.55 1.615 2.594 2.538.834.416.95 1.548.094 1.612-.49.036-1.028-.332-2.078-1.422zm73.543 1.263c-.222-1.297 1.139-1.773 1.946-2.69.547-.715 1.102-1.301 1.235-1.301s.37.282.528.628c.259.567.143.772-1.202 2.117-1.504 1.504-1.838 1.67-2.507 1.246zm-28.44 68.02c-1.039-1.017-2.567-3.133-2.068-3.557.435-.421 1.04.086 1.938 1.148.721 1.033 1.376 1.75 1.913 2.887 0 1.017-.558.867-1.783-.476zm-16.46.398c0-.29.35-.819 1.014-1.595.789-1.097 1.412-2.04 2.49-2.555.75.396.649.554.277 1.157-.823 1.02-1.59 2.058-2.598 3.117-.54.428-.925.424-1.182-.124zm.076-69.714c-.328-.402-.091-.62 1.04-1.61 1.994-2.673 2.042-2.664 2.82-2.174.356.323.13.664-1.634 3.14-.978 1.177-1.64 1.24-2.226.644zm16.262-.886c-1.717-2.371-1.753-2.618-1.288-2.767.733-.207.58-.286 3.019 2.519 1.049.864 1.05 1.614.003 1.614-.43 0-.967-.423-1.734-1.366zM0 12.555c0-2.262.054-2.57.444-2.512.574.084.837.783.86 2.283.01.662.154 1.338.319 1.503.474.475.08 1.052-.808 1.183C.065 14.836 0 13.566 0 12.555zm80.787 1.989c.32-1.466.41-2.85.837-4.231.393-.51.4-.51.796.003.304.394.362.925.243 2.248-.086.954-.202 1.882-.26 2.064-.146.475-1.427.408-1.616-.084zM1.475 84.162c-.537-2.72-1.508-5.991-.378-8.738.959-2.605 2.626-4.287 5.118-5.578 6.574-2.323 12.244-1.61 17.996-1.028 2.818.406 4.858.949 7.14 2.203 2.384 1.188 3.732 2.447 4.633 4.33.398.834.535.931 1.14.808 3.592-.725 4.11-.725 7.715.001.628.127.74.036 1.177-.953 3.15-6.465 15.95-8.034 25.724-6.712 4.043.744 7.166 2.712 8.765 6.166 0 .31.17.73.38.934.29.282.38.986.38 2.971.176 1.538-.962 7.346-1.78 5.42-.15-.384-.157-1.004-.02-1.6.305-1.317-.076-5.588-.58-6.51-.314-.963-.932-1.754-1.484-2.4-1.2-1.287-3.09-2.37-4.625-2.65-4.338-.987-8.434-1.131-12.781-.482-3.53.428-7.133 1.586-9.514 3.08-2.255 1.428-4.034 3.901-3.178 4.416.297.177-.1 1.29-.684 1.916-.267.286-.396.85-.378 1.645.035 1.468-.524 2.15-1.116 1.362-.204-.271-.3-.746-.22-1.097.076-.342.033-1.166-.096-1.833-.345-1.789-.892-2.099-3.716-2.105-3.059-.008-3.57.242-3.928 1.907-.153.713-.213 1.6-.133 1.968.182.838-.145 1.364-.771 1.247-.393-.073-.479-.316-.487-1.377-.01-1.16-.108-1.384-1.013-2.286-1.232-.947-.645-.662-.421-1.427l.582-.427-.635-1.103c-2.216-2.747-5.128-4.207-8.257-4.998-3.976-1.07-11.547-1.542-14.202-.886-.62.154-1.644.357-2.276.454-6.483 1.082-7.906 5.808-7.073 11.635.182 1.272.07 2.179-.412 2.179-.188 0-.455-.204-.592-.452zm44.023-70.546c-.162-.302-.224-.987-.14-1.522-.098-1.114-.078-1.367-.5-1.913-.475-.92-2.763-1.065-5.433-.664-2.173.327-2.52.677-2.25 2.269.22 1.304-.03 2.114-.652 2.114-.65 0-.797-.49-.625-2.086.126-1.174.058-1.442-.547-2.16-.913-1.086-.9-1.785.037-1.984.4-.085 1.085-.354 1.52-.597 1.217-.676 6.613-.796 7.92-.176.533.253 1.35.538 1.815.633 1.059.217 1.2.823.44 1.89-.505.71-.557 1.02-.4 2.403.232 2.056-.473 3.123-1.185 1.793zM.833 6.08c.823-1.447 1.562-2.5 1.97-2.5.2 0 .437.3.53.67.128.512.006.818-.524 1.31C1.915 6.879 1.919 7.108.999 8c-1.307.11-.74-1.04-.166-1.92zm78.85-.775c-.866-1.032-.893-1.828-.162-1.934.402-.058.765.263 1.39 1.227.348.76.873 1.515 1.283 2.11.57.32.277 1.106-.41 1.106-1.15-.435-1.568-1.538-2.1-2.51zm-31.86 1.157c-.672-.381-.571-.817.364-1.562a43.104 43.104 0 0 0 1.493-1.254c.737-.656 2.045-.796 2.258-.24.187.488-.097.86-.833 1.09-.581.182-.96.468-2.29 1.727-.395.375-.645.435-.992.24zm-14.125-.368c-1.208-.822-2.505-1.59-3.223-2.443.125-.655 1.385-.752 1.994-.153.268.264.928.777 1.467 1.14 1.013.684 1.364 1.195 1.107 1.612-.24.386-1.18.277-1.345-.156zM26.604 2.58c-.103-.104-1.042-.25-2.085-.322-1.812-.126-1.897-.162-1.897-.793 0-.724-.106-.708 3.084-.448 1.666.135 2.075.303 2.075.85 0 .44-.904.986-1.177.713zM5.916 2.124c-.24-.626.39-.714 1.675-1.11C8.5.674 8.79.767 9.294.508c.88-.413 1.243-.12 1.5.312.127.887-.72 1.358-2.792 1.554-1.638.155-1.85.435-2.086-.25zm48.865.017c-.526-.634-.056-.955 1.578-1.076.77-.058 1.526-.23 1.678-.382.419-.418 1.417-.332 1.597.14.32.83-.312 1.435-1.501 1.438-.613.002-1.538.073-2.054.158-.687.114-1.034.04-1.298-.278zm19.1.107c-1.474-.298-2.71-1.042-2.71-1.634 0-.372.22-.472 1.028-.472 1.108.275 1.407.315 2.36.67 1.353.354 1.985.437 1.863 1.08-.11.58-.887.69-2.54.356zm-59.808-1.21C13.178.375 14.118.02 16.695.05c2.504.027 3.22.295 2.644.989-.415.499-4.59.497-5.266-.002zm49.22.13c-.323-.118-.587-.341-.587-.495 0-.486 1.124-.716 3.25-.666 2.116.05 2.95.39 2.374.967-.36.359-4.194.507-5.038.195z"/>
</svg>