<svg version="1.1" id="Слой_0" xmlns="http://www.w3.org/2000/svg" x="0" y="0" width="155" height="62" style="enable-background:new 0 0 155 62" xml:space="preserve">
  <style>
    .st0{fill:#ccc}
  </style>
  <path class="st0" d="M132.4 4.9h1v8.3h-1zM.5 4.9h1v40.4h-1z"/>
  <path style="fill:#282828" d="m.5 4.9.6.4 5.3 4.4V5.4h121.1v4.3l5.4-4.4.5-.4-5.9-4.9v4.4H6.4V0z"/>
  <path d="M1.5 52.4c.1.1.3.2.4.1l23.3-16.9c6.2-4.5 13.5-7.1 21.1-7.4l88.5-5.7c.2 0 .3.1.3.3 0 2-.1 3.6-.3 4.5l-6 26.6c0 .2.1.4.3.4h2.4c.1 0 .3-.1.3-.2l5.9-26.1c.7-2.9.4-12.4.3-14.5 0-.2-.1-.3-.3-.3h-2.4c-.2 0-.3.1-.3.3v5.6c0 .2-.1.3-.3.3l-88.6 5.7c-8.2.4-16.1 3.1-22.7 8L.1 50c-.1.1-.1.3 0 .5l1.4 1.9z" style="fill:#a5a5a5"/>
</svg>