<svg xmlns="http://www.w3.org/2000/svg" width="60" height="22" fill="none"><path fill="#333" d="M29.872 9.925c-.414-.159-.956-.206-1.545-.206h-3.28v-1.02h5.637V6.947h-7.947v7.581h5.383c.749 0 1.306-.063 1.72-.223.876-.334 1.465-1.146 1.465-2.213 0-1.083-.557-1.832-1.433-2.167Zm-1.147 2.628c-.127.048-.302.064-.526.064h-3.153v-1.21H28.2c.254 0 .461.016.62.095.192.096.287.271.287.494a.57.57 0 0 1-.382.557ZM37.78 6.947h-3.376l-3.106 7.581h2.612l.43-1.099h3.504l.446 1.1h2.596L37.78 6.946Zm-2.866 4.81 1.099-3.058h.175l1.099 3.058h-2.373ZM43.858 11.71v2.818H41.55v-7.58h2.31v2.77h3.71v-2.77h2.31v7.58h-2.31V11.71h-3.71ZM53.534 11.662v2.866h-2.31v-7.58h2.31v2.85h.637l2.787-2.85h2.898l-3.694 3.63L60 14.529h-3.074l-2.755-2.866h-.637Z"/><path fill="#FFDD2D" d="M0 2.526h18.316v8.58a6.61 6.61 0 0 1-3.305 5.725l-5.853 3.38-5.853-3.38A6.61 6.61 0 0 1 0 11.106v-8.58Z"/><path fill="#333" fill-rule="evenodd" d="M5.053 6.947v2.847c.389-.44 1.097-.737 1.906-.737h.88v3.31c0 .88-.24 1.742-.595 2.166h3.826c-.354-.424-.593-1.285-.593-2.165v-3.31h.88c.809 0 1.517.297 1.906.736V6.947h-8.21Z" clip-rule="evenodd"/></svg>
