<svg xmlns="http://www.w3.org/2000/svg" width="40" height="40" viewBox="0 0 40 40">
  <path d="M837 352h10l-.1-3.27a1.7 1.7 0 0 0-1.7-1.73h-20.41a1.77 1.77 0 0 0-1.8 1.73v17.54a1.77 1.77 0 0 0 1.8 1.73h20.4a1.7 1.7 0 0 0 1.71-1.73l.1-3.27h-10v-11Z" style="fill-rule:evenodd;fill:#a5a5a5" transform="translate(-816 -337)"/>
  <path d="M849 355.2a1.25 1.25 0 0 0-1.3-1.2h-7.41a1.25 1.25 0 0 0-1.3 1.2v4.6a1.25 1.25 0 0 0 1.3 1.2h7.42a1.25 1.25 0 0 0 1.3-1.2v-4.6Zm-6.5 3.8a1.5 1.5 0 1 1 1.5-1.5 1.5 1.5 0 0 1-1.5 1.5Z" style="fill:#49A4DC;fill-rule:evenodd" transform="translate(-816 -337)"/>
</svg>