<svg xmlns="http://www.w3.org/2000/svg" width="25" height="24" fill="none">
  <path stroke="#000" stroke-linecap="round" stroke-linejoin="round" stroke-width="1.0988" d="M19.2083 14.223c-.164 3.1734-2.8397 5.6969-6.116 5.6969-3.3823 0-6.124-2.6889-6.124-6.006v-5.034"/>
  <path fill="#000" d="M18.9684 11.5199c-.0406 1.7364-.616 5.7506-1.8433 6.8237l-.2083.3763h5.1716v-8.5673c0-3.884-3.1888-7.0327-7.1223-7.0327h-3.7554c-3.9336 0-7.1223 3.1486-7.1223 7.0327v8.5673H9.464l-.0156-.0571C7.96 17.5661 6.996 15.8133 6.996 13.8381v-4.549h5.908c2.1525 0 4.2317.043 4.6244-1.9692"/>
  <path stroke="#000" stroke-linecap="round" stroke-linejoin="round" stroke-width="1.0988" d="M12.5364 11.3018H9.0078v2.2217h3.5286v-2.2217ZM17.5994 11.3018h-3.5286v2.2217h3.5286v-2.2217ZM12.5312 12.2698h1.5396"/>
  <path fill="#000" d="M22.3279 23.0399c-.9789-1.1708-2.479-1.92-4.1607-1.92H8.0089c-1.6819 0-3.1818.7492-4.1608 1.92h18.48-.0002Z"/>
</svg>