<svg xmlns="http://www.w3.org/2000/svg" width="25" height="24" fill="none">
  <path fill="#000" fill-rule="evenodd" d="M19.4912 9.2363c0-3.4356-1.2929-6.5964-7.2033-6.5964-5.9105 0-7.2034 3.1608-7.2034 6.5964.4925.2748 1.6623.3298 2.4011-1.6491.7388-1.979 3.5093-2.382 4.8023-2.3362 1.2929-.0459 4.0634.3573 4.8022 2.3362.7388 1.9789 1.9086 1.924 2.4011 1.649Z" clip-rule="evenodd"/>
  <path fill="#000" d="M9.5396 7.158c.289-.4905.2409-1.5672.1807-2.0442 1.445-.9812 2.89-.4088 3.4319 0-1.6257 3.2708-3.9738 2.6576-3.6126 2.0443Z"/>
  <path stroke="#000" stroke-linecap="round" stroke-linejoin="round" stroke-width="1.0988" d="M14.9404 14.1682c1.12 0 2.0279-.9079 2.0279-2.0278 0-1.12-.9079-2.0279-2.0279-2.0279-1.1199 0-2.0278.9079-2.0278 2.0279 0 1.1199.9079 2.0278 2.0278 2.0278ZM9.3432 14.1682c1.12 0 2.0279-.9079 2.0279-2.0278 0-1.12-.9079-2.0279-2.0279-2.0279-1.1199 0-2.0278.9079-2.0278 2.0279 0 1.1199.908 2.0278 2.0278 2.0278ZM11.3711 12.0874h1.5414"/>
  <path stroke="#000" stroke-linecap="round" stroke-linejoin="round" stroke-width="1.0988" d="M19.5093 9.9322h-.4538V9.541c0-2.2207-1.8002-4.0209-4.0208-4.0209H9.2495c-2.2206 0-4.0208 1.8002-4.0208 4.0209v.3913h-.4538c-.7651 0-1.3315.7119-1.1594 1.4575l.2829 1.226a1.19 1.19 0 0 0 1.1595.9224h.284c.589 3.2207 3.4094 5.6618 6.8002 5.6618s6.2113-2.4411 6.8002-5.6618h.284a1.19 1.19 0 0 0 1.1595-.9224l.2829-1.226c.1721-.7456-.3943-1.4575-1.1594-1.4575Z"/>
  <path fill="#000" d="M20.6342 22.0934c-.8997-1.1166-2.2784-1.8312-3.824-1.8312H7.474c-1.5458 0-2.9244.7146-3.8241 1.8312h16.9845-.0002Z"/>
</svg>