<svg xmlns="http://www.w3.org/2000/svg" width="464.909" height="89.551" version="1">
  <path fill="#fdc509" d="M22.367 67.183L0 44.815l22.408-22.407L44.815 0l22.408 22.408L89.63 44.815 67.263 67.183C54.96 79.485 44.859 89.55 44.815 89.55c-.044 0-10.146-10.066-22.448-22.368z"/>
  <path fill="#a2cd55" d="M22.367 67.183L0 44.815l22.408-22.407L44.815 0l22.408 22.408L89.63 44.815 67.263 67.183C54.96 79.485 44.859 89.55 44.815 89.55c-.044 0-10.146-10.066-22.448-22.368zm.08-14.992l7.375-7.376-7.415-7.415-7.415-7.416L7.576 37.4.161 44.815l7.375 7.376c4.056 4.057 7.41 7.376 7.456 7.376.044 0 3.4-3.32 7.456-7.376z"/>
  <path fill="#979c8f" d="M37.038 81.825c-4.233-4.249-7.565-7.627-7.404-7.507.266.199.944-.434 7.696-7.186l7.404-7.405-7.335-7.336c-4.035-4.035-7.335-7.43-7.335-7.546 0-.115-.059-.173-.13-.129-.072.045-3.459-3.252-7.527-7.326l-7.395-7.406 14.891-14.992L44.795 0l22.417 22.408L89.63 44.815 67.263 67.183C54.96 79.485 44.859 89.55 44.815 89.55c-.045 0-3.544-3.477-7.777-7.726z"/>
  <path fill="#936bac" d="M37.328 81.974l-7.405-7.415 14.812-14.912 14.813-14.912-7.406-7.416-7.406-7.415-7.457 7.455-7.457 7.456-7.402-7.402-7.402-7.402L29.79 15.126C37.916 6.939 44.639.24 44.73.24c.091 0 10.189 10.023 22.44 22.273l22.273 22.274-11.11 11.218C68.512 65.923 44.931 89.39 44.788 89.39c-.03 0-3.387-3.337-7.46-7.416z"/>
  <path fill="#69bf7a" d="M37.305 81.96l-7.428-7.43 22.327-22.326 22.328-22.326 7.455 7.455 7.456 7.455-11.11 11.218C68.512 65.923 44.931 89.39 44.788 89.39c-.03 0-3.397-3.343-7.483-7.43zM22.42 37.414l-7.402-7.402L29.79 15.126C37.916 6.939 44.639.24 44.731.24c.09 0 3.484 3.319 7.54 7.375l7.375 7.376-14.912 14.912-14.911 14.911z"/>
  <path fill="#ef594e" d="M52.23 67.222c-3.99-3.99-7.255-7.364-7.255-7.496 0-.132 6.657-6.896 14.792-15.031L74.56 29.903l7.455 7.456 7.455 7.457-14.83 14.831c-8.158 8.157-14.904 14.831-14.993 14.831-.088 0-3.426-3.265-7.416-7.256zM22.42 37.413l-7.402-7.402L29.79 15.126C37.916 6.939 44.639.24 44.731.24c.09 0 3.484 3.319 7.54 7.375l7.375 7.376-14.912 14.912-14.911 14.911z"/>
  <path fill="#e7891b" d="M52.23 67.222c-3.99-3.99-7.255-7.364-7.255-7.496 0-.132 6.657-6.896 14.792-15.031L74.56 29.903l7.455 7.456 7.455 7.457-14.83 14.831c-8.158 8.157-14.904 14.831-14.993 14.831-.088 0-3.426-3.265-7.416-7.256zM22.407 37.4l-7.415-7.416 7.455-7.455 7.456-7.455 7.226 7.215c3.973 3.968 7.288 7.328 7.365 7.466.11.197-1.464 1.856-7.266 7.656l-7.406 7.405z"/>
  <path fill="#0094d3" d="M52.23 67.222c-3.99-3.99-7.255-7.364-7.255-7.496 0-.132 6.657-6.896 14.792-15.031L74.56 29.903l7.455 7.456 7.455 7.457-14.83 14.831c-8.158 8.157-14.904 14.831-14.993 14.831-.088 0-3.426-3.265-7.416-7.256z"/>
  <path fill="#01b4b2" d="M52.23 67.222c-3.99-3.99-7.255-7.364-7.255-7.496 0-.133 3.302-3.541 7.337-7.576l7.336-7.335 7.454 7.456 7.455 7.456-7.374 7.376c-4.056 4.056-7.447 7.375-7.536 7.375-.09 0-3.427-3.265-7.417-7.256z"/>
  <path fill="#221e1f" d="M179.341 80.49c-7.59-1.037-14.167-4.629-18.645-10.18-5.207-6.455-7.301-15.483-5.557-23.95 1.78-8.646 7.412-15.863 15.283-19.586 9.594-4.539 21.214-3.748 29.857 2.03 1.971 1.32 4.74 3.905 6.24 5.83 6.51 8.346 7.784 20.317 3.21 30.144-4.057 8.715-12.343 14.522-22.527 15.785-1.81.225-5.968.186-7.86-.073zm7.937-11.931c6.67-1.726 11.146-8.23 11.143-16.189-.003-9.281-5.644-16.057-13.846-16.633-9.347-.655-16.441 7.175-15.924 17.576.4 8.069 5.16 14.157 12.09 15.47 1.708.324 4.834.217 6.537-.224zm65.423 11.918c-3.077-.478-5.695-1.377-8.02-2.754-1.78-1.053-4.546-3.829-5.552-5.57-2.405-4.162-3.077-9.055-1.915-13.94 1.595-6.708 7.24-11.479 15.458-13.065 2.86-.552 4.896-.653 13.133-.653h7.977v-.688c0-1.816-1.002-4.016-2.516-5.52-1.135-1.128-3.22-2.234-5.02-2.665-3.502-.837-7.893-.67-12.186.466-2.782.736-6.827 2.525-10.783 4.77l-1.563.888V34.88c0-6.397.02-6.87.28-6.952.155-.048 1.544-.531 3.087-1.073 4.973-1.747 8.709-2.553 13.447-2.902 9.554-.702 17.838 1.67 22.71 6.5 2.858 2.835 4.512 5.989 5.555 10.593l.363 1.604.053 18.64.053 18.639h-13.48v-3.447c0-1.896-.046-3.448-.103-3.448-.057 0-.688.56-1.403 1.244-3.731 3.57-7.684 5.572-12.394 6.28-1.567.235-5.423.191-7.18-.082zm11.54-12.002c2.341-.7 3.792-1.555 5.452-3.216 1.662-1.662 2.532-3.074 3.282-5.323.472-1.417.965-4.039.967-5.149v-.53l-7.896.062c-6.919.054-8.036.097-9.02.348-4.286 1.093-6.493 3.687-6.493 7.63 0 2.746 1.177 4.659 3.548 5.765 1.74.812 2.748.966 5.912.902 2.482-.05 2.972-.107 4.249-.489zm86.076 12.081c-10.826-1.261-19.71-8.035-23.361-17.814-4.848-12.982.007-27.633 11.466-34.608 3.986-2.426 8.32-3.775 13.486-4.198 3.735-.307 8.134.218 11.806 1.408 2.23.722 5.825 2.527 7.636 3.833 6.456 4.654 10.517 11.623 11.467 19.677.248 2.107.128 6.702-.226 8.605-2.33 12.543-11.673 21.348-24.438 23.034-1.932.255-5.915.287-7.836.063zm7.506-11.987c2.31-.607 4.648-1.998 6.414-3.817 1.942-2.002 3.345-4.535 4.096-7.397.504-1.923.698-6.165.374-8.178-1.097-6.822-5.336-11.742-11.307-13.123-1.829-.423-5.302-.386-7.007.073-4.445 1.2-7.987 4.358-9.884 8.816-1.009 2.37-1.575 5.772-1.404 8.438.525 8.207 5.199 14.062 12.302 15.414 1.626.309 4.806.197 6.416-.226zm72.522 11.916c-8.777-1.281-15.7-6.314-19.623-14.264-3.652-7.4-4.217-15.86-1.599-23.912 2.887-8.874 9.735-15.441 18.346-17.592 2.601-.65 4.006-.812 6.975-.806 2.26.005 3.125.074 4.447.356 4.104.876 7.116 2.514 10.639 5.786l1.59 1.476V7.777h13.789V79.93H451.44v-3.447c0-1.896-.043-3.448-.097-3.448-.053 0-.79.657-1.637 1.459-2.692 2.547-6.135 4.58-9.213 5.44-2.861.799-6.935 1.02-10.148.551zm10.063-11.92c5.262-1.372 9.245-5.591 10.72-11.355 1.074-4.2.603-9.236-1.213-12.981-2.636-5.436-7.512-8.549-13.387-8.549-6.457 0-11.663 3.853-14 10.362-.853 2.374-1.22 5.674-.925 8.314.495 4.43 1.907 7.566 4.664 10.356 2.2 2.227 4.576 3.519 7.488 4.071 1.701.323 4.988.215 6.653-.219zM97.353 79.822c-.058-.059-.106-16.293-.106-36.077V7.776h15.284c16.081 0 17.289.043 20.792.74 5.7 1.132 10.02 3.32 13.554 6.866 1.885 1.891 3.073 3.531 4.093 5.652 3.38 7.027 3.327 16.656-.129 23.538-1.146 2.284-2.197 3.714-4.194 5.709-4.228 4.223-9.584 6.658-16.931 7.695-.754.107-4.806.214-9.821.26l-8.538.08V79.93h-6.948c-3.822 0-6.997-.048-7.056-.107zm30.618-33.97c6.705-1.152 10.564-5.462 10.916-12.194.37-7.072-3.279-11.83-10.294-13.42-1.32-.3-2.113-.334-9.34-.394l-7.896-.067v26.32h7.595c6.08 0 7.88-.049 9.019-.245zm89.959 33.97c-.059-.059-.107-16.293-.107-36.077V7.776h13.789V79.93h-6.787c-3.734 0-6.836-.048-6.895-.107zm77.445 0c-.059-.059-.107-12.469-.107-27.579V24.773H308.897v6.931l1.483-1.412c4.404-4.19 8.342-5.867 14.352-6.11l2.447-.1-.041 6.479-.042 6.478-2.405.107c-10.139.451-14.757 4.054-15.628 12.193-.102.957-.166 7.143-.166 16.074V79.93h-6.708c-3.689 0-6.755-.048-6.814-.107zm93.051-27.472V24.773H402.055V79.93H388.426zm-.16-38.963V7.777h13.949V19h-13.949z"/>
</svg>