<svg xmlns="http://www.w3.org/2000/svg" version="1.0" width="1024" height="424" viewBox="-1.8 -1.8 152.4 63"><path d="M90.3 46h-6.6L88 22h6.7l-4.3 24zM107.6 46H97h-.1l7.2-42a172.6 172.6 0 007.2 0l-1 5.7-.2 1-5.7 33h3.6l-.4 2.3zM95 19.7h-6.7l.5-2.7h6.7l-.5 2.7zM55.1 42.8c-.4 0-6.6-.1-9.3-.4-3.4-.4-5.3-1.8-4.6-5.6.8-4.4 6.4-4.7 15.9-4.7l-2 10.7zm-2-25.8H40.7l-.5 2.6h13.4c2.2.2 4.9 1.4 4.8 4.8v.5l-.8 4.2c-15.9 0-22.2.9-23.6 8.7-.8 5 2 8 8.1 8l12.4.1 6.8.1 3-17.3C66 19.7 62.3 17 53.2 17zM129 43.9c-7 .6-12.4-4.1-12.2-10.6.3-6.5 6-12.2 13-12.8 7-.6 12.4 4.1 12.2 10.6-.3 6.4-6.1 12.2-13 12.8zm2.7-26.4c-10.7 0-20.5 6.6-22 14.7-1.3 8.1 6.3 14.7 17 14.7s20.6-6.6 22-14.7c1.3-8.1-6.3-14.7-17-14.7zM21 21.8l-8.4-3c-3.8-1.3-5.6-3.3-5.2-6 .6-3.7 5-6.7 11.3-6.7 6.3 0 10.4 3 11.2 8.4l1.8-.1h.5L33.3 7c-4.9-2.2-9.6-3.3-14.5-3.3C8.7 3.7 1 8.9 0 15c-.8 4.9 2.1 8.2 9 10.7l8.9 3.2c5.6 2 8 4 7.4 7.8-.6 4.1-5.7 7.4-13.2 7.4A13 13 0 012 40l-.8 5a34 34 0 0011.6 1.9c10.9 0 19-5.3 20.2-12.5 1-6-3.1-9.5-12-12.6z" fill="#003868"/><path d="M59.4 0L58 8.4 37.4 1H27l33.3 12.5L62.4 0h-3z" fill="#97bbdb"/><path d="M72.2 46l4-24h8.2l.3-2.3h-8.1l1.2-7.2c.8-4.5 4.8-5.8 7.4-5.8H97l.5-2.7H86c-9 0-13.7 2-15.3 11l-5 31h6.5z" fill="#003868"/><path d="M54.6 55.7c-.2 1-.4 1.8-1.3 2.5-.8.8-1.9 1.3-2.9 1.3-2 0-3.4-1.7-3-3.8a4.8 4.8 0 014.4-3.8 3 3 0 012.8 1.6l-.6.5a2.4 2.4 0 00-2.3-1.3 3.8 3.8 0 00-3.6 3c0 .8 0 1.5.5 2 .5.6 1.2 1 2 1 1.2 0 2.7-1 3-2.3h-2.2l.1-.7h3zM62 55.4h.2c.9 0 1.9-.2 2-1.3.3-1.2-.6-1.3-1.6-1.3h-.2l-.5 2.6zm-.8 4h-.8l1.3-7.4h1c1.5 0 2.7.4 2.4 2-.2 1.2-1 2-2.2 2l1.7 3.3h-1L62 56.1h-.2l-.6 3.2zM72.1 55.7c-.3 1.6.8 3 2.5 3 1.6 0 3.2-1.4 3.5-3 .3-1.7-.8-3-2.4-3a3.8 3.8 0 00-3.6 3zm6.8 0a4.7 4.7 0 01-4.5 3.8 3 3 0 01-3.1-3.8 4.8 4.8 0 014.5-3.8c2 0 3.5 1.7 3.1 3.8zM86 56.4c0 .5-.2 1.1 0 1.6.3.5.9.7 1.4.7.5 0 1.2-.2 1.6-.6.4-.5.5-1.1.6-1.7l.8-4.4h.8l-.8 4.6c-.1.8-.3 1.4-1 2-.6.6-1.4.9-2.1.9-.7 0-1.4-.3-1.8-.8-.5-.6-.5-1.3-.3-2.1L86 52h.8l-.8 4.4zM98.2 55.4h.6c.9 0 1.7-.3 1.9-1.3.2-1.2-.8-1.3-1.7-1.3h-.3l-.5 2.6zm-.7 4h-.8L98 52h1.2c.6 0 1.3 0 1.8.4.4.4.6 1 .5 1.7-.1.6-.5 1.2-1 1.6a3 3 0 01-1.8.4H98l-.6 3.2z" fill="#97bbdb"/></svg>