<svg xmlns="http://www.w3.org/2000/svg" xml:space="preserve" width="200" height="57.9" style="enable-background:new 0 0 200 57.9">
  <path d="M10.7 33.4c-6-1.5-4.5-7 .3-8.9 3.7-1.5 4.7-1.9 27.4-1.9l24.3.2 2.3-3.2s-4.7-.5-19-.3c-10.9 0-40.7-.6-41 9.9-.2 9.1 14.4 9.9 30.8 9.9s18.6 3.6 18.6 6c0 1.8-.6 8.6-18.3 8.6s-33.2-1-33.2-1L0 56.9l26.7.5c5.5.2 29.3.5 29.3-12.2.1-13.6-30.1-7.9-45.3-11.8z"/>
  <path d="M182.5 55.9c-1.6 0-4.7-.2-6.5-3.6 2.1-3.2 3.7-7.5 4.9-11.3 2.3-7.5.8-11 .8-11l-3.7-2.8s-5.7 3.1-6.3 12c-.5 5.3.8 10 2.4 12.8-1.5 2.1-2.8 3.6-4.4 3.6-4.2 0-5.2-11.8-3.7-24 .3-3.4 1.5-9.7 1.5-9.7l30 .6 2.6-3.7H168l1.9-9.9-3.2-2.3s-1.5 4.5-2.8 12.2h-6l2.1-9.9-3.2-2.3s-1.3 4.9-2.6 12.2H91.6c2.1-9.6 2.1-15.2 2.1-15.2L89.6.2s-5.8 5-9.4 24.8c-1.2 7.3-1.8 14.8-1.9 22.2 0 0-2.3 9.1-6.2 8.9-1.8 0-2.4-2.4-2.9-6 3-7.8 5.5-15.8 7.5-24 3-14.1 2.2-22.5 2.2-22.5L74.6 0s-6 5-7.5 25c-.8 8.4-.7 16.9.3 25.3-1.6 3.1-3.4 5.7-5.2 5.7-2.8 0-2.8-8.4-2.6-13.3.3-6.6 1.5-10.7 1.5-10.7l-2.8-2s-1.5 7.1-1.3 14.3c.2 7 .6 13.5 5.2 13.5 2.1 0 4.1-2.3 5.7-5.2.8 3.1 2.1 5 4.2 5.2 3.1.2 5-2.8 6.3-5.7.2 2.9.6 5.3.6 5.3h1.3s-.8-6.2 4.2-16.2c2.4-5.2 3.7-7.9 8.1-9.9 0 0-1.3 2.3-2.8 10.7-1.5 8.8 1.5 15.9 5.7 15.9 2.9 0 4.4-3.4 5-5.5 1 3.2 2.9 5.5 5.2 5.5 2.9 0 6.2-5.7 7-11.2.8.5 1.5.5 1.8.5 1.5 0 2.8-1.3 3.6-2.8-.3 7.1 1.3 13.5 4.1 13.5 3.4 0 5.3-5.2 6-6.8.6 2.1 2.9 6.8 6.3 6.8 1.6 0 3.2-1.1 4.9-2.9 1.3 2.4 3.2 2.9 4.9 2.9 4.7 0 7.9-8.9 8.1-9.6.3 4.9 1.6 9.6 5.7 9.6 4.4 0 5.7-7.3 5.7-7.3 1.1 3.4 3.2 7.3 6.3 7.3 1.8 0 3.7-1.5 5.3-3.9 2.9 3.9 6.8 3.9 7.5 3.9 13.1 0 16.9-14.4 16.9-14.4l-1.6-1.9c-.3-.3-3.9 14.5-15.7 14.3zm-113-31.1c1-8.9 4.5-20.4 6.3-20.3 2.3.2 1 11.3-1 21.2-.8 4.4-2.9 11.8-3.6 14.4-.5 1.9-1.5 4.4-2.4 7-.4-8.9.6-21 .7-22.3zm11.2 21.4c0-8.8 1.9-20.1 2.3-21.2 1.6-8.9 6.2-20.3 7.8-20.3 2.2.2.1 11.3-2.6 21.1-1.2 4.3-5.9 16.3-7.5 20.4zm25.1 9.6c-2.8 0-4.1-5.8-2.9-13.5 1.1-7.5 4.7-12.2 6.6-12.2.5 0 1.3.5 1.3 3.2-.2.3-1.3 2.1-1.3 6.5 0 2.3.5 4.1 1.5 5.3-1.1 6.9-3.2 10.7-5.2 10.7zm34.1-4.6c-.4-3.5-.3-7 .3-10.4.6-4.7 2.9-10.7 4.5-10.7 1.9 0 1.3 5.7.2 10.9-.8 2.9-2.8 7-5 10.2zm12.5-7.4c-.3 1-4.2 12.2-8.3 12.2-1.8 0-2.9-1-3.6-2.6 2.4-3.4 4.7-7.9 5.8-12.2 2.3-7.5.8-11 .8-11l-3.7-2.8s-5.7 3.7-6.5 13.8c-.4 4 .1 8 1.6 11.7-1.5 1.8-3.1 3.1-4.2 3.1-2.8 0-4.5-4.7-4.2-7.8.8-7 3.4-16.2 3.4-16.2l-2.5-2-2.6 12.5c-1.3 7.3-3.6 13.6-6.2 13.6-2.8 0-1.5-11.2-1.1-14.3.5-4.2 2.6-11.3 2.6-11.3l-2.6-1.9-1.9 8.4c-.6 3.1-1.9 8.4-4.5 8.4-1.5 0-2.4-2.6-1.8-6.2.5-3.1 1-4.1 1-4.1l-1-.6-.3-2.3c-.2-1.6-.5-2.3-.5-2.3l-3.7-2.6s-6.3 1.1-8.3 14.4c-.3 2.8-.3 5.3 0 7.6-.6 3.1-1.8 6.3-4.4 6.3-2.8 0-3.9-5.8-2.6-13.6 1.1-7.5 4.5-13.8 4.5-13.8s-2.6-.2-5.3 1.1c-1.7.9-3.2 2.1-4.5 3.6l2.3-7 1.5-5.7 62.7 1.5c-1.1 6.5-2.1 14.1-1.9 22.1zM162.7 31c-.8 11 .2 16.4.2 16.4-1 3.6-2.3 8.6-4.7 8.6-2.3 0-3.9-6.3-1.8-24.1l1.5-9.9 6 .2c-.5 2.6-1 5.5-1.2 8.8zm12.2 9.7c.5-4.9 2.9-10.7 4.5-10.7 1.9 0 1.3 5.7.2 10.9-.6 2.8-2.3 6.5-4.1 9.6-.8-2.2-1.1-5.3-.6-9.8zM60.5 14.6c.3.6.8 1 1.5 1 0 0 .5-.5.8-1.9l.5-3.4c0-.8-.3-1.6-.6-2.1-.3-.6-.8-1-1.5-1 0 0-.6.5-1.1 2.8l-.3 2.8c0 .8.5 1.5.7 1.8z"/>
</svg>