<svg xmlns="http://www.w3.org/2000/svg" width="150" height="14.9" style="enable-background:new 0 0 150 14.9" xml:space="preserve">
  <path d="M.1 10h2.2v1.1c.1 1.2.7 1.9 1.9 2 2.5.2 5 .3 7.5 0 1.5-.2 1.9-.7 1.9-2.2 0-.4 0-.8-.1-1.2-.2-1.1-.5-1.4-1.6-1.5-1.6 0-3.4-.1-5.2-.2-1.3-.1-2.7-.1-4-.5C1.2 7.1.5 6.3.3 4.8c-.1-.7 0-1.4.1-2.1C.6 1.4 1.7.5 3.1.2 3.9 0 4.7 0 5.6 0H11c.9 0 1.9.2 2.8.5 1.2.5 1.9 1.4 1.9 2.7 0 .3 0 .6-.1 1-.7.1-1.4 0-2.1 0-.2-.4-.1-.8-.2-1.2-.1-.7-.4-1.1-1.1-1.2-.8-.2-1.5-.2-2.3-.3-1.7 0-3.5-.1-5.3.2C2.8 1.9 1.9 4 3 5.5c.3.5.9.6 1.4.7l4.8.3c1.2.1 2.5.1 3.7.3.3.1.6.1.9.2 1.2.4 1.9 1.2 2 2.4.1.8.1 1.7 0 2.5-.3 1.5-1.3 2.4-3 2.7-2.1.3-4.1.3-6.2.2-1.1 0-2.2 0-3.3-.2-.5-.1-1-.2-1.5-.5C.7 13.6.1 12.7 0 11.5c0-.4 0-1 .1-1.5zM115.5 10h2.2c.1.5.1 1 .2 1.5.2 1.1.6 1.6 1.7 1.7 2.6.3 5.2.3 7.8 0 1.4-.2 1.7-.7 1.7-2.1v-.9c0-1.3-.4-1.7-1.7-1.9-1.2-.2-2.4-.1-3.6-.2-1.2-.1-2.5-.2-3.7-.2-.7 0-1.3-.2-2-.3-1.2-.3-2-1.1-2.2-2.4-.1-.9-.2-1.8.1-2.7.3-1 1-1.7 2.1-2 1-.3 2-.3 3-.3h5.3c1 0 1.9.2 2.9.5 1.4.5 1.9 1.3 1.9 2.8v.8c-.4.2-.8.1-1.1.1h-1c-.2-.3-.1-.6-.2-.9-.1-1.1-.4-1.5-1.4-1.6-.8-.1-1.6-.2-2.4-.2-1.6 0-3.1-.1-4.7.1-1.9.2-2.9 2-2 3.7.3.6.9.8 1.6.8 1.6.2 3.2.2 4.8.3 1.2.1 2.5.1 3.7.3.5.1.9.2 1.3.4.9.4 1.4 1.1 1.6 2 .2 1 .2 2 0 3-.2 1.3-1.4 2.2-3 2.4-2.1.3-4.1.3-6.2.2-1.1 0-2.3 0-3.4-.2-1.4-.3-2.6-.9-3-2.4-.3-.8-.4-1.5-.3-2.3zM75.7 0c1.6 0 3.3-.1 5 .3C82.9.8 84 2 84 4.3v5.6c0 3.5-1.8 4.3-4.2 4.6-2.9.4-5.8.3-8.6 0-.1 0-.3 0-.4-.1-2.8-.5-3.8-1.7-3.8-4.6V4.7c0-.5 0-1 .2-1.5.3-1.2 1-2.1 2.2-2.6 1.2-.4 2.5-.6 3.9-.6h2.4zm-.6 13.3h1.3c1.2-.1 2.4 0 3.6-.4 1-.4 1.6-1 1.7-2.1.2-1.9.1-3.9.1-5.8 0-.5-.1-1-.2-1.4-.3-1.3-1.4-1.7-2.5-1.8-2.3-.3-4.7-.3-7 0-1.7.2-2.5 1-2.7 2.7-.1 2-.1 4 0 6 .1 1.5.5 2.2 2.4 2.7 1 .1 2.1 0 3.3.1zM149.6 6.4v1.5h-11.4v5.2H150c.1.5.1.9 0 1.4h-14.1V.1H150c.1.5.1.9 0 1.5h-11.8v4.7c3.7.1 7.5.1 11.4.1zM88.1.2c.8 0 1.5-.1 2.1 0 .2.3.1.6.1.9v8.8c0 2.2.7 2.9 2.9 3.1 2.1.2 4.2.2 6.3 0 .5 0 1-.2 1.4-.4.5-.3.9-.7 1-1.3.1-.5.1-1 .1-1.5V.3c.7-.2 1.5-.1 2.1-.1.2.2.1.4.1.7v9.2c0 .5-.1.9-.1 1.4-.3 1.5-1.2 2.5-2.7 2.9-1.1.3-2.3.5-3.4.5-1.9 0-3.9.1-5.8-.2-.5-.1-.9-.2-1.3-.3-1.7-.5-2.7-1.7-2.8-3.4-.1-3.6 0-7.2 0-10.8zM26.3 14.6c-.8.1-1.5 0-2.3 0V1.7h-6.3c-.1-.6-.1-1-.1-1.6h15.1c0 .5.1 1 0 1.5h-6.3c-.1 4.4-.1 8.7-.1 13zM51.1.2h2.2v12.9h11.4c.1.5.1 1 0 1.5H51.1V.2zM111.2 14.6c-.7.1-1.4.1-2.2 0V.2c.7-.1 1.4-.1 2.2 0v14.4zM31.7 12.5H34v2h-2.3c-.1-.5 0-1.2 0-2z"/>
</svg>