<svg version="1.1" id="Слой_1" xmlns="http://www.w3.org/2000/svg" x="0" y="0" width="250" height="151.2" style="enable-background:new 0 0 250 151.2" xml:space="preserve">
  <style>
    .st0{fill:#f30203}.st1{fill:#020202}
  </style>
  <path class="st0" d="m121.7 0 .4.3 10.6.7a147.7 147.7 0 0 1 21.7 3.3c3.1.8 6.3 1.6 9.4 2.6a66 66 0 0 1 17.3 8.4 29 29 0 0 1 9.2 9.9c1.9 3.6 2.3 7.3 1.7 11.2-.4 2.9-1.7 5.7-3.4 8.2-3.9 6-9.4 10.3-15.6 13.8a99.5 99.5 0 0 1-40.5 11.9c-4.2.5-8.5.8-12.8.8-6.7 0-13.5-.1-20.2-.5-4.3-.2-8.6-.8-12.8-1.4-3.4-.5-6.8-1.2-10.1-1.8-1.3-.2-2.5-.6-3.8-.9-1.1-.3-1.5-1.1-1.4-2.2.7-1 1.6-.8 2.5-.6l9.1 1.8c2.9.5 5.7 1 8.6 1.3l8.3.7c8.1.8 16.3.5 24.4.3 3.4-.1 6.8-.6 10.2-1.2 3.3-.5 6.6-1.2 9.9-2.1 6-1.6 11.8-3.9 17.1-7.2A46 46 0 0 0 173.6 47c2.6-3.2 4.6-6.7 5.2-10.8.4-3-.2-5.8-1.5-8.5a32 32 0 0 0-10.1-11.8 72.5 72.5 0 0 0-24.6-10.2c-7.9-1.7-15.9-2.5-24-2.5-4.2 0-8.3-.1-12.5.1-4 .2-8 .7-11.9 1.2-4.5.5-9 1.6-13.3 3a56 56 0 0 0-20.6 10.9 25 25 0 0 0-7 9.4c-1.5 3.7-2 7.6-.7 11.5 1.2 3.5 3.5 6.2 6.4 8.4a45 45 0 0 0 14.4 7.1 86 86 0 0 0 15.9 3.1 126.4 126.4 0 0 0 34.5-1.2c3.2-.7 6.3-1.4 9.4-2.6 2-.8 3.8-1.9 5.3-3.5 2.7-2.9 1.6-6.9-2.3-8.5a27 27 0 0 0-8.4-1.9l-24-1.2c-5.6-.3-11.2-.7-16.8-1.3-3.8-.4-7.6-1.1-11.2-2.7-2.1-.9-4-2-5.3-4a8.5 8.5 0 0 1-1.1-6.4c.7-3.9 3.1-6.6 6.2-8.7 4.8-3.3 10.3-5 15.9-6.2a100.6 100.6 0 0 1 28.7-2c4 .3 7.9.6 11.8 1.2 5.8.8 11.5 2.2 17 4.2l3.7 1.5c.8.4 1.2 1.1.9 1.7-.2.6-.8.8-1.8.6l-.7-.2a91.5 91.5 0 0 0-16.3-3.7 150.7 150.7 0 0 0-33.8-.8c-4.4.5-8.8 1.2-12.9 2.8-1.8.7-3.6 1.7-5.1 2.8a4.9 4.9 0 0 0-2.1 4.9c.2 1.4 1.1 2.3 2.2 3a18 18 0 0 0 5.5 1.9c7.7 1.5 15.5 1.9 23.3 2.3l15.1.8c5.3.3 10.6.5 15.9 1.1a38 38 0 0 1 11.4 2.7c2.4 1.1 4.4 2.7 5.1 5.4 1 3.4.1 6.5-2.2 9.2a25.7 25.7 0 0 1-10 6.9 73.3 73.3 0 0 1-12.9 3.8l-8.9 1.7a92 92 0 0 1-13.9 1.2c-4.6 0-9.1.1-13.7-.1-3.6-.1-7.1-.5-10.7-.9A81 81 0 0 1 73.4 59a90 90 0 0 1-20.5-8 40.2 40.2 0 0 1-10.6-8.2 14 14 0 0 1-3.6-11.1 19 19 0 0 1 4.7-10.6c4.1-4.8 9.3-8.1 14.9-10.8A81 81 0 0 1 74 4.8 134 134 0 0 1 107.4.3l2-.1.6-.3 11.7.1z"/>
  <path class="st1" d="m250 123.8-6.1-.2c-2.9-.2-5.4-1.4-7.5-3.4l-7-6.8a76 76 0 0 0-4.3-3.7c-.4-.3-1.1-.4-1.6-.5h-2.1l-.2-1h2.3c3.9 0 7.4-2.7 7.7-6.9.1-1.6 0-3.2-.4-4.8-.6-2.7-2.5-4.1-5-4.9-2.3-.7-4.7-.5-7.2-.5l-.1.8v26.8c0 2.2 1.1 3.4 3.3 3.5h2v1h-15v-1h1.5c2.4 0 3.6-1.1 3.6-3.5V95.9l-.1-2.1a2.3 2.3 0 0 0-2-2.1l-2.9-.2-.1-.9.5-.1 8.7-.5c3.2-.1 6.5-.2 9.6.5 2.9.6 5.5 1.6 7.3 4.2a8.5 8.5 0 0 1-2.2 11.8l-3 1.7.2.3 9.7 9.3c2.3 2.2 4.8 4.1 7.9 4.8l2.4.3.1.9zM0 115.2l1.2-.1-.1.2c.6 1.2 1.2 2.5 1.9 3.6 2.8 4 8.9 4.8 12.5 1.7a5.5 5.5 0 0 0 .7-7.4c-1.7-2.2-4-3.6-6.2-5.1-2.1-1.4-4.2-2.8-6.2-4.4a9 9 0 0 1-3-4.2c-1.1-3 .2-6.6 2.8-8.3 3.1-2 6.5-2.1 9.9-1.3l1.9.6c.8.2 1.7.5 2.5-.2l.9-.2 1 6.9H19c-.9-1.2-1.5-2.4-2.4-3.4A8.3 8.3 0 0 0 8.2 91c-3.5.9-4.9 5-2.6 7.8 1.7 2.1 3.9 3.4 6.1 4.8 2.6 1.6 5.3 3.2 7.4 5.6 4.3 4.9 2.1 11.5-3.6 13.8-3.2 1.3-6.5 1-9.7.1l-2-.5c-.4-.1-.9.1-1.3.2l-1.3.3-.8-6.4c0-.3-.2-.6-.4-.9v-.6z"/>
  <path class="st0" d="m110 151.2-.6-2.6-2.3-8.8-.7-2.6-.1-.7h2.4l2.4 9.7h.3l2.7-9.8 1.9.1a612 612 0 0 0 2.7 9.6h.2l2.4-9.7h2.3v.6l-3.2 12.1-.5 1.9h-2l-.4-1.3-2.3-8.2-.3-.4-.2.5-2.2 7.7-.4 1.7c-.8.2-1.4.2-2.1.2zM176.8 151.2v-14.6l.5-.1h5.5c1.9 0 3.3 1.1 4 2.9a4 4 0 0 1-1.3 4.4l-1.4.9 2.7 5.1.4 1.3h-2.5l.1-.3a139 139 0 0 0-2.8-5.4c-.1-.3-.4-.6-.7-.6h-2.2l-.1 1.2v5.1l-2.2.1zm2.3-12.8v4.5h3.7c1.1-.1 1.7-.8 1.8-1.8.1-1.1-.3-2.1-1.4-2.3-1.3-.4-2.7-.3-4.1-.4zM134.2 151.2v-14.3l.1-.3h9.1l.1 1.9h-7v4.2h5.9v2h-5.9v4.3h6.9v2.3l-9.2-.1zM45.8 151.2v-14l.1-.6h9.2v1.9h-7v4.2h6v2h-6v4.3h7l.1 2.3-9.4-.1zM86.7 151.2v-13.9l.1-.7H96v1.9h-6.9v4.2H95v2h-5.9v4.2H96v2.3h-9.3zM153.8 151.2l.8-2.8 4-11 .3-.8h1.8l1.9 5.2 3 8.2.2 1.3h-2.2l-1.1-3h-5.6l-1.1 3-2-.1zm4-5.2h4.3l-2-5.8h-.2l-2.1 5.8zM69.7 151.2c0-1.7-.2-3.4-.1-5 .1-1.5-.8-2.6-1.4-3.8-.8-1.8-1.8-3.5-2.7-5.3l-.1-.6h2.3l2.9 5.9h.3l2.9-5.9h2.4l-.6 1.3-3.2 6.3a4 4 0 0 0-.4 1.8v4.2l-.2 1.1h-2.1z"/>
  <path class="st1" d="m183.6 107.2-.1 1.2v10.2c0 1.7.7 2.5 2.4 2.5 3.3 0 6.7.1 10-.1 1.8-.1 2.9-1.4 3.6-2.9l1.1-3 .9.1-.8 7.9h-28.1l-.1-1h1.4l3.2-.4c1-.3 1.6-1.1 1.7-2.1l.1-9.8V95.4l-.1-1.7c-.1-.9-1.1-1.8-2.1-1.9l-3-.2-.1-1H199l.4 7.4h-1c-.3-1.1-.5-2.1-.9-3.1-.6-1.7-1.6-2.3-3.4-2.3h-10.6v12.9h8.6c2.3 0 3.2-.8 3.5-3l.1-1 1.1-.2v10.3h-1l-.7-2.6c-.3-1.1-1.2-1.6-2.2-1.6-3-.2-6.1-.2-9.3-.2zM68.4 91.4v-1h25.4l.4 7.3-1 .1-.5-2.3c-.4-1.4-1-2.8-2.7-3.1l-.7-.1H78.7l-.3.1v12.9h8.9c2 0 3-.9 3.2-2.9l.1-1 1-.3c.2 3.5.1 6.9.1 10.2-.7.4-1.1.2-1.2-.5l-.5-2c-.3-1-1.1-1.5-2.1-1.5-3.1-.1-6.2 0-9.3 0l-.3.1-.1.5v10.5c0 .6.1 1.2.3 1.7.2.7.8 1.1 1.5 1.1h10.6c1.6-.1 2.7-1.1 3.4-2.6l1.3-3.3.9.1-.8 7.9h-28v-1h1.8c.8-.1 1.7-.1 2.5-.3 1.3-.3 1.9-1.2 2.1-2.5l.1-3V95.8c0-.8-.1-1.6-.3-2.3-.3-.9-1-1.6-2-1.7-1.1-.3-2.1-.3-3.2-.4zM115.3 91.3V119.1c.2 1.8 1.2 2.9 3.1 2.9h2.8v1.1h-14.6l-.1-1.1h1.4c2 0 2.9-.9 2.9-2.9V94c0-2-.8-2.7-2.7-2.7h-2.3l-.2-1.1 5.2-.2c3-.1 6.1-.3 9.1-.2 3 .1 6 .5 8.7 2.2 3.3 2 4.4 5.8 3.7 9.3a10 10 0 0 1-8.8 7.6c-1.8.3-3.6.3-5.4.5v-1.2l.9-.1c4.3-.2 7.4-2.8 8.2-6.8.5-2.7.6-5.5-1.4-7.8-1.4-1.7-3.3-2.3-5.4-2.5H116c-.2.1-.4.3-.7.3zM156.4 122.2l-.1 1h-14.7v-1h1.4c2 0 2.9-.9 3-3V94.1c0-1.5-.6-2.8-2.6-2.6h-2.5v-1.1l9.1-.4h6.5c2.5.2 5 .7 7.2 2a8.7 8.7 0 0 1 3.8 9.4 9.7 9.7 0 0 1-6.7 7.1c-2.4.9-4.9 1-7.6.9l-.1-1.1 1.1-.1c3.5-.2 6.1-2 7.5-5.1a9.9 9.9 0 0 0 .1-7.9c-.7-1.8-2-2.9-3.7-3.5-2.5-.9-5.1-.7-7.7-.5l-.1.6v27.4c.2 1.8 1.3 2.9 3.1 3h3zM37.1 122.1H40c1.2-.1 2.3-.4 2.8-1.5.3-.7.3-1.5.4-2.3v-25l-.1-1h-9.2c-1.5 0-2.5 1.2-2.9 3.1l-.6 2.8h-1l.9-8.8 1.2.4c.4.1.8.4 1.2.4h25.8c.4 0 .8-.3 1.2-.4l1.2-.6.9 8.9h-1l-.7-2.9c-.6-2.3-1.5-2.9-3.9-2.9H48l-.1.9v24.7c0 3.2.9 4.1 4.2 4.2H54v1H37.3c-.2-.3-.2-.6-.2-1z"/>
</svg>